ISO-10303-21;
HEADER;
FILE_DESCRIPTION(('ViewDefinition [ReferenceView_V1.2]'),'2;1');
FILE_NAME('efh.ifc','2026-01-01T00:00:00',('BIT-Atelier'),('BIT-Atelier'),'IfcOpenShell','BIT-Atelier Harness make_example.py','None');
FILE_SCHEMA(('IFC4'));
ENDSEC;
DATA;
#1=IFCPROJECT('1IOT0IKKrShRsFgSwNY2tm',$,'EFH Satteldach',$,$,$,$,(#11),#6);
#2=IFCSIUNIT(*,.LENGTHUNIT.,$,.METRE.);
#3=IFCSIUNIT(*,.AREAUNIT.,$,.SQUARE_METRE.);
#4=IFCSIUNIT(*,.VOLUMEUNIT.,$,.CUBIC_METRE.);
#5=IFCSIUNIT(*,.PLANEANGLEUNIT.,$,.RADIAN.);
#6=IFCUNITASSIGNMENT((#2,#3,#4,#5));
#7=IFCCARTESIANPOINT((0.,0.,0.));
#8=IFCDIRECTION((0.,0.,1.));
#9=IFCDIRECTION((1.,0.,0.));
#10=IFCAXIS2PLACEMENT3D(#7,#8,#9);
#11=IFCGEOMETRICREPRESENTATIONCONTEXT($,'Model',3,1.0000000000000001E-05,#10,$);
#12=IFCGEOMETRICREPRESENTATIONSUBCONTEXT('Body','Model',*,*,*,*,#11,$,.MODEL_VIEW.,$);
#13=IFCSITE('3CHKMq6FnUNw4VbpMwokIc',$,'Grundstueck',$,$,$,$,$,$,$,$,$,$,$);
#14=IFCBUILDING('2VpK2tZy9JFRK7gSnQ0hoW',$,'Einfamilienhaus',$,$,$,$,$,$,$,$,$);
#15=IFCBUILDINGSTOREY('12SW0kepnUzBnZBWiDlkwR',$,'EG',$,$,$,$,$,$,0.);
#16=IFCBUILDINGSTOREY('3cRYNLrHDPN8Tbg_tcf1pU',$,'OG',$,$,$,$,$,$,3.);
#17=IFCRELAGGREGATES('3PpEci3zfVCPYUfoaumBb6',$,$,$,#1,(#13));
#18=IFCRELAGGREGATES('2ELLd2hjTLFx8Su5a$Kz78',$,$,$,#13,(#14));
#19=IFCRELAGGREGATES('2hyGTjfL1VRhPUK4hVzDjf',$,$,$,#14,(#15,#16));
#20=IFCWALL('0SEIfRvUzVhR7QPvjtSREI',$,'AW-Sued-EG',$,$,#42,#31,$,.SOLIDWALL.);
#21=IFCCARTESIANPOINTLIST2D(((0.,0.),(0.,0.36499999999999999),(10.,0.36499999999999999),(10.,0.),(0.,0.)));
#22=IFCINDEXEDPOLYCURVE(#21,$,.F.);
#23=IFCDIRECTION((0.,0.,1.));
#24=IFCARBITRARYCLOSEDPROFILEDEF(.AREA.,$,#22);
#25=IFCCARTESIANPOINT((0.,0.,0.));
#26=IFCDIRECTION((0.,0.,1.));
#27=IFCDIRECTION((1.,0.,0.));
#28=IFCAXIS2PLACEMENT3D(#25,#26,#27);
#29=IFCEXTRUDEDAREASOLID(#24,#28,#23,3.);
#30=IFCSHAPEREPRESENTATION(#12,'Body','SweptSolid',(#29));
#31=IFCPRODUCTDEFINITIONSHAPE($,$,(#30));
#37=IFCRELCONTAINEDINSPATIALSTRUCTURE('2USBqUbJ5HQuAG5quzcnxo',$,$,$,(#20,#57,#129,#466,#93,#165,#1106,#1043,#201,#791,#665,#728),#15);
#38=IFCCARTESIANPOINT((0.,0.,0.));
#39=IFCDIRECTION((0.,0.,1.));
#40=IFCDIRECTION((1.,0.,0.));
#41=IFCAXIS2PLACEMENT3D(#38,#39,#40);
#42=IFCLOCALPLACEMENT($,#41);
#43=IFCPROPERTYSET('3VK47E7hnKOewHQKYECNXv',$,'Pset_WallCommon',$,(#45,#46,#47));
#44=IFCRELDEFINESBYPROPERTIES('3Ail4NLDLRgxEHzpJAF7E4',$,$,$,(#20),#43);
#45=IFCPROPERTYSINGLEVALUE('IsExternal',$,IFCBOOLEAN(.T.),$);
#46=IFCPROPERTYSINGLEVALUE('LoadBearing',$,IFCBOOLEAN(.T.),$);
#47=IFCPROPERTYSINGLEVALUE('FireRating',$,IFCLABEL('F30'),$);
#48=IFCELEMENTQUANTITY('0FIflfsGfKd9YvwgjKB2Op',$,'Qto_WallBaseQuantities',$,'BaseQuantities',(#50,#51,#52,#53,#54,#55,#56));
#49=IFCRELDEFINESBYPROPERTIES('3IZSiXxm1ItwYzH$77GS1I',$,$,$,(#20),#48);
#50=IFCQUANTITYLENGTH('Length',$,$,10.,$);
#51=IFCQUANTITYLENGTH('Height',$,$,3.,$);
#52=IFCQUANTITYLENGTH('Width',$,$,0.36499999999999999,$);
#53=IFCQUANTITYAREA('GrossSideArea',$,$,30.,$);
#54=IFCQUANTITYAREA('NetSideArea',$,$,24.765000000000001,$);
#55=IFCQUANTITYVOLUME('GrossVolume',$,$,10.949999999999999,$);
#56=IFCQUANTITYVOLUME('NetVolume',$,$,9.0389999999999997,$);
#57=IFCWALL('0klqixok5PHevOjKMkkZZz',$,'AW-Ost-EG',$,$,#78,#68,$,.SOLIDWALL.);
#58=IFCCARTESIANPOINTLIST2D(((0.,0.),(0.,0.36499999999999999),(8.,0.36499999999999999),(8.,0.),(0.,0.)));
#59=IFCINDEXEDPOLYCURVE(#58,$,.F.);
#60=IFCDIRECTION((0.,0.,1.));
#61=IFCARBITRARYCLOSEDPROFILEDEF(.AREA.,$,#59);
#62=IFCCARTESIANPOINT((0.,0.,0.));
#63=IFCDIRECTION((0.,0.,1.));
#64=IFCDIRECTION((1.,0.,0.));
#65=IFCAXIS2PLACEMENT3D(#62,#63,#64);
#66=IFCEXTRUDEDAREASOLID(#61,#65,#60,3.);
#67=IFCSHAPEREPRESENTATION(#12,'Body','SweptSolid',(#66));
#68=IFCPRODUCTDEFINITIONSHAPE($,$,(#67));
#74=IFCCARTESIANPOINT((10.,0.,0.));
#75=IFCDIRECTION((0.,0.,1.));
#76=IFCDIRECTION((0.,1.,0.));
#77=IFCAXIS2PLACEMENT3D(#74,#75,#76);
#78=IFCLOCALPLACEMENT($,#77);
#79=IFCPROPERTYSET('1F4wRd_ojQMR2GFExpXQLi',$,'Pset_WallCommon',$,(#81,#82,#83));
#80=IFCRELDEFINESBYPROPERTIES('1Za_oe5MfNJgRYuUAGoPl4',$,$,$,(#57),#79);
#81=IFCPROPERTYSINGLEVALUE('IsExternal',$,IFCBOOLEAN(.T.),$);
#82=IFCPROPERTYSINGLEVALUE('LoadBearing',$,IFCBOOLEAN(.T.),$);
#83=IFCPROPERTYSINGLEVALUE('FireRating',$,IFCLABEL('F30'),$);
#84=IFCELEMENTQUANTITY('2_3sqNqWnQqPT2tkNwBE7i',$,'Qto_WallBaseQuantities',$,'BaseQuantities',(#86,#87,#88,#89,#90,#91,#92));
#85=IFCRELDEFINESBYPROPERTIES('2NtNrzvHLJvfYzJWyGzfnw',$,$,$,(#57),#84);
#86=IFCQUANTITYLENGTH('Length',$,$,8.,$);
#87=IFCQUANTITYLENGTH('Height',$,$,3.,$);
#88=IFCQUANTITYLENGTH('Width',$,$,0.36499999999999999,$);
#89=IFCQUANTITYAREA('GrossSideArea',$,$,24.,$);
#90=IFCQUANTITYAREA('NetSideArea',$,$,24.,$);
#91=IFCQUANTITYVOLUME('GrossVolume',$,$,8.7599999999999998,$);
#92=IFCQUANTITYVOLUME('NetVolume',$,$,8.7599999999999998,$);
#93=IFCWALL('1kxkcmh4vLgOJiNkn8FTmw',$,'AW-Nord-EG',$,$,#114,#104,$,.SOLIDWALL.);
#94=IFCCARTESIANPOINTLIST2D(((0.,0.),(0.,0.36499999999999999),(10.,0.36499999999999999),(10.,0.),(0.,0.)));
#95=IFCINDEXEDPOLYCURVE(#94,$,.F.);
#96=IFCDIRECTION((0.,0.,1.));
#97=IFCARBITRARYCLOSEDPROFILEDEF(.AREA.,$,#95);
#98=IFCCARTESIANPOINT((0.,0.,0.));
#99=IFCDIRECTION((0.,0.,1.));
#100=IFCDIRECTION((1.,0.,0.));
#101=IFCAXIS2PLACEMENT3D(#98,#99,#100);
#102=IFCEXTRUDEDAREASOLID(#97,#101,#96,3.);
#103=IFCSHAPEREPRESENTATION(#12,'Body','SweptSolid',(#102));
#104=IFCPRODUCTDEFINITIONSHAPE($,$,(#103));
#110=IFCCARTESIANPOINT((10.,8.,0.));
#111=IFCDIRECTION((0.,0.,1.));
#112=IFCDIRECTION((-1.,0.,0.));
#113=IFCAXIS2PLACEMENT3D(#110,#111,#112);
#114=IFCLOCALPLACEMENT($,#113);
#115=IFCPROPERTYSET('1LWRJoZvzJhhxyMEN5$ase',$,'Pset_WallCommon',$,(#117,#118,#119));
#116=IFCRELDEFINESBYPROPERTIES('0WeYLmH_HHagqnOu1lmpNW',$,$,$,(#93),#115);
#117=IFCPROPERTYSINGLEVALUE('IsExternal',$,IFCBOOLEAN(.T.),$);
#118=IFCPROPERTYSINGLEVALUE('LoadBearing',$,IFCBOOLEAN(.T.),$);
#119=IFCPROPERTYSINGLEVALUE('FireRating',$,IFCLABEL('F30'),$);
#120=IFCELEMENTQUANTITY('2ELFPARkbUoOPDNs183Wb3',$,'Qto_WallBaseQuantities',$,'BaseQuantities',(#122,#123,#124,#125,#126,#127,#128));
#121=IFCRELDEFINESBYPROPERTIES('2OzXuPoJzKshUse8gwfTVX',$,$,$,(#93),#120);
#122=IFCQUANTITYLENGTH('Length',$,$,10.,$);
#123=IFCQUANTITYLENGTH('Height',$,$,3.,$);
#124=IFCQUANTITYLENGTH('Width',$,$,0.36499999999999999,$);
#125=IFCQUANTITYAREA('GrossSideArea',$,$,30.,$);
#126=IFCQUANTITYAREA('NetSideArea',$,$,27.844000000000001,$);
#127=IFCQUANTITYVOLUME('GrossVolume',$,$,10.949999999999999,$);
#128=IFCQUANTITYVOLUME('NetVolume',$,$,10.163,$);
#129=IFCWALL('16u2HKOXLLIeO8kCj7xpCt',$,'AW-West-EG',$,$,#150,#140,$,.SOLIDWALL.);
#130=IFCCARTESIANPOINTLIST2D(((0.,0.),(0.,0.36499999999999999),(8.,0.36499999999999999),(8.,0.),(0.,0.)));
#131=IFCINDEXEDPOLYCURVE(#130,$,.F.);
#132=IFCDIRECTION((0.,0.,1.));
#133=IFCARBITRARYCLOSEDPROFILEDEF(.AREA.,$,#131);
#134=IFCCARTESIANPOINT((0.,0.,0.));
#135=IFCDIRECTION((0.,0.,1.));
#136=IFCDIRECTION((1.,0.,0.));
#137=IFCAXIS2PLACEMENT3D(#134,#135,#136);
#138=IFCEXTRUDEDAREASOLID(#133,#137,#132,3.);
#139=IFCSHAPEREPRESENTATION(#12,'Body','SweptSolid',(#138));
#140=IFCPRODUCTDEFINITIONSHAPE($,$,(#139));
#146=IFCCARTESIANPOINT((0.,8.,0.));
#147=IFCDIRECTION((0.,0.,1.));
#148=IFCDIRECTION((0.,-1.,0.));
#149=IFCAXIS2PLACEMENT3D(#146,#147,#148);
#150=IFCLOCALPLACEMENT($,#149);
#151=IFCPROPERTYSET('2Yky_8yJDPIRRIrMdmRZCU',$,'Pset_WallCommon',$,(#153,#154,#155));
#152=IFCRELDEFINESBYPROPERTIES('3$xuu8ZK9M9A709mLuhIsM',$,$,$,(#129),#151);
#153=IFCPROPERTYSINGLEVALUE('IsExternal',$,IFCBOOLEAN(.T.),$);
#154=IFCPROPERTYSINGLEVALUE('LoadBearing',$,IFCBOOLEAN(.T.),$);
#155=IFCPROPERTYSINGLEVALUE('FireRating',$,IFCLABEL('F30'),$);
#156=IFCELEMENTQUANTITY('3dy0Ks6M5HGAVR14RAnWj9',$,'Qto_WallBaseQuantities',$,'BaseQuantities',(#158,#159,#160,#161,#162,#163,#164));
#157=IFCRELDEFINESBYPROPERTIES('2i1IdYNYDJdeCLtyIrFYUt',$,$,$,(#129),#156);
#158=IFCQUANTITYLENGTH('Length',$,$,8.,$);
#159=IFCQUANTITYLENGTH('Height',$,$,3.,$);
#160=IFCQUANTITYLENGTH('Width',$,$,0.36499999999999999,$);
#161=IFCQUANTITYAREA('GrossSideArea',$,$,24.,$);
#162=IFCQUANTITYAREA('NetSideArea',$,$,21.577000000000002,$);
#163=IFCQUANTITYVOLUME('GrossVolume',$,$,8.7599999999999998,$);
#164=IFCQUANTITYVOLUME('NetVolume',$,$,7.8760000000000003,$);
#165=IFCWALL('1uI2XTdg5NgASAzL_BIhxl',$,'IW-Quer-EG',$,$,#186,#176,$,.SOLIDWALL.);
#166=IFCCARTESIANPOINTLIST2D(((0.,0.),(0.,0.115),(9.2699999999999996,0.115),(9.2699999999999996,0.),(0.,0.)));
#167=IFCINDEXEDPOLYCURVE(#166,$,.F.);
#168=IFCDIRECTION((0.,0.,1.));
#169=IFCARBITRARYCLOSEDPROFILEDEF(.AREA.,$,#167);
#170=IFCCARTESIANPOINT((0.,0.,0.));
#171=IFCDIRECTION((0.,0.,1.));
#172=IFCDIRECTION((1.,0.,0.));
#173=IFCAXIS2PLACEMENT3D(#170,#171,#172);
#174=IFCEXTRUDEDAREASOLID(#169,#173,#168,3.);
#175=IFCSHAPEREPRESENTATION(#12,'Body','SweptSolid',(#174));
#176=IFCPRODUCTDEFINITIONSHAPE($,$,(#175));
#182=IFCCARTESIANPOINT((0.36499999999999999,4.,0.));
#183=IFCDIRECTION((0.,0.,1.));
#184=IFCDIRECTION((1.,0.,0.));
#185=IFCAXIS2PLACEMENT3D(#182,#183,#184);
#186=IFCLOCALPLACEMENT($,#185);
#187=IFCPROPERTYSET('10jlmCYlrHNRIDD_dDC2vW',$,'Pset_WallCommon',$,(#189,#190,#191));
#188=IFCRELDEFINESBYPROPERTIES('0IAFaaq4XQSurNRC6BxnhK',$,$,$,(#165),#187);
#189=IFCPROPERTYSINGLEVALUE('IsExternal',$,IFCBOOLEAN(.F.),$);
#190=IFCPROPERTYSINGLEVALUE('LoadBearing',$,IFCBOOLEAN(.F.),$);
#191=IFCPROPERTYSINGLEVALUE('FireRating',$,IFCLABEL('F30'),$);
#192=IFCELEMENTQUANTITY('0QfG1VGGjRUB7VwT7F2fAX',$,'Qto_WallBaseQuantities',$,'BaseQuantities',(#194,#195,#196,#197,#198,#199,#200));
#193=IFCRELDEFINESBYPROPERTIES('0ELROaw6TTzfgKwGBLOSc_',$,$,$,(#165),#192);
#194=IFCQUANTITYLENGTH('Length',$,$,9.2699999999999996,$);
#195=IFCQUANTITYLENGTH('Height',$,$,3.,$);
#196=IFCQUANTITYLENGTH('Width',$,$,0.115,$);
#197=IFCQUANTITYAREA('GrossSideArea',$,$,27.809999999999999,$);
#198=IFCQUANTITYAREA('NetSideArea',$,$,27.809999999999999,$);
#199=IFCQUANTITYVOLUME('GrossVolume',$,$,3.198,$);
#200=IFCQUANTITYVOLUME('NetVolume',$,$,3.198,$);
#201=IFCWALL('3aUzzUplHU5RUgH9QkQY7v',$,'IW-Laengs-EG',$,$,#222,#212,$,.SOLIDWALL.);
#202=IFCCARTESIANPOINTLIST2D(((0.,0.),(0.,0.115),(3.6349999999999998,0.115),(3.6349999999999998,0.),(0.,0.)));
#203=IFCINDEXEDPOLYCURVE(#202,$,.F.);
#204=IFCDIRECTION((0.,0.,1.));
#205=IFCARBITRARYCLOSEDPROFILEDEF(.AREA.,$,#203);
#206=IFCCARTESIANPOINT((0.,0.,0.));
#207=IFCDIRECTION((0.,0.,1.));
#208=IFCDIRECTION((1.,0.,0.));
#209=IFCAXIS2PLACEMENT3D(#206,#207,#208);
#210=IFCEXTRUDEDAREASOLID(#205,#209,#204,3.);
#211=IFCSHAPEREPRESENTATION(#12,'Body','SweptSolid',(#210));
#212=IFCPRODUCTDEFINITIONSHAPE($,$,(#211));
#218=IFCCARTESIANPOINT((6.,0.36499999999999999,0.));
#219=IFCDIRECTION((0.,0.,1.));
#220=IFCDIRECTION((0.,1.,0.));
#221=IFCAXIS2PLACEMENT3D(#218,#219,#220);
#222=IFCLOCALPLACEMENT($,#221);
#223=IFCPROPERTYSET('1M5EfG2DrJoPnp562ufzcx',$,'Pset_WallCommon',$,(#225,#226,#227));
#224=IFCRELDEFINESBYPROPERTIES('3Sf6VJyubPAu3OuFeKBKw$',$,$,$,(#201),#223);
#225=IFCPROPERTYSINGLEVALUE('IsExternal',$,IFCBOOLEAN(.F.),$);
#226=IFCPROPERTYSINGLEVALUE('LoadBearing',$,IFCBOOLEAN(.F.),$);
#227=IFCPROPERTYSINGLEVALUE('FireRating',$,IFCLABEL('F30'),$);
#228=IFCELEMENTQUANTITY('1nfzjnVn9N1BBIT0KW6IA8',$,'Qto_WallBaseQuantities',$,'BaseQuantities',(#230,#231,#232,#233,#234,#235,#236));
#229=IFCRELDEFINESBYPROPERTIES('3gMHukYs1R_BXK_n5o8Bx_',$,$,$,(#201),#228);
#230=IFCQUANTITYLENGTH('Length',$,$,3.6349999999999998,$);
#231=IFCQUANTITYLENGTH('Height',$,$,3.,$);
#232=IFCQUANTITYLENGTH('Width',$,$,0.115,$);
#233=IFCQUANTITYAREA('GrossSideArea',$,$,10.904999999999999,$);
#234=IFCQUANTITYAREA('NetSideArea',$,$,10.904999999999999,$);
#235=IFCQUANTITYVOLUME('GrossVolume',$,$,1.254,$);
#236=IFCQUANTITYVOLUME('NetVolume',$,$,1.254,$);
#237=IFCWALL('0YItuDgqfJeh_CmqU1hGN6',$,'AW-Sued-OG',$,$,#259,#248,$,.SOLIDWALL.);
#238=IFCCARTESIANPOINTLIST2D(((0.,0.),(0.,0.36499999999999999),(10.,0.36499999999999999),(10.,0.),(0.,0.)));
#239=IFCINDEXEDPOLYCURVE(#238,$,.F.);
#240=IFCDIRECTION((0.,0.,1.));
#241=IFCARBITRARYCLOSEDPROFILEDEF(.AREA.,$,#239);
#242=IFCCARTESIANPOINT((0.,0.,0.));
#243=IFCDIRECTION((0.,0.,1.));
#244=IFCDIRECTION((1.,0.,0.));
#245=IFCAXIS2PLACEMENT3D(#242,#243,#244);
#246=IFCEXTRUDEDAREASOLID(#241,#245,#240,3.);
#247=IFCSHAPEREPRESENTATION(#12,'Body','SweptSolid',(#246));
#248=IFCPRODUCTDEFINITIONSHAPE($,$,(#247));
#254=IFCRELCONTAINEDINSPATIALSTRUCTURE('1lSpP6dp9I4ABSazQYPiml',$,$,$,(#498,#237,#418,#917,#854,#530,#274,#346,#980,#310,#382,#562),#16);
#255=IFCCARTESIANPOINT((0.,0.,3.));
#256=IFCDIRECTION((0.,0.,1.));
#257=IFCDIRECTION((1.,0.,0.));
#258=IFCAXIS2PLACEMENT3D(#255,#256,#257);
#259=IFCLOCALPLACEMENT($,#258);
#260=IFCPROPERTYSET('2qzPyNkELReP0mRseGLi4i',$,'Pset_WallCommon',$,(#262,#263,#264));
#261=IFCRELDEFINESBYPROPERTIES('0kpKpYwUXIS93l0xntTwP9',$,$,$,(#237),#260);
#262=IFCPROPERTYSINGLEVALUE('IsExternal',$,IFCBOOLEAN(.T.),$);
#263=IFCPROPERTYSINGLEVALUE('LoadBearing',$,IFCBOOLEAN(.T.),$);
#264=IFCPROPERTYSINGLEVALUE('FireRating',$,IFCLABEL('F30'),$);
#265=IFCELEMENTQUANTITY('0ULvUMpA9K_gA8jVc$1eul',$,'Qto_WallBaseQuantities',$,'BaseQuantities',(#267,#268,#269,#270,#271,#272,#273));
#266=IFCRELDEFINESBYPROPERTIES('1IytlPv$vS3P9aQcgdhGP3',$,$,$,(#237),#265);
#267=IFCQUANTITYLENGTH('Length',$,$,10.,$);
#268=IFCQUANTITYLENGTH('Height',$,$,3.,$);
#269=IFCQUANTITYLENGTH('Width',$,$,0.36499999999999999,$);
#270=IFCQUANTITYAREA('GrossSideArea',$,$,30.,$);
#271=IFCQUANTITYAREA('NetSideArea',$,$,24.765000000000001,$);
#272=IFCQUANTITYVOLUME('GrossVolume',$,$,10.949999999999999,$);
#273=IFCQUANTITYVOLUME('NetVolume',$,$,9.0389999999999997,$);
#274=IFCWALL('2d5KMaVkTHcftWNlhtHyyB',$,'AW-Ost-OG',$,$,#295,#285,$,.SOLIDWALL.);
#275=IFCCARTESIANPOINTLIST2D(((0.,0.),(0.,0.36499999999999999),(8.,0.36499999999999999),(8.,0.),(0.,0.)));
#276=IFCINDEXEDPOLYCURVE(#275,$,.F.);
#277=IFCDIRECTION((0.,0.,1.));
#278=IFCARBITRARYCLOSEDPROFILEDEF(.AREA.,$,#276);
#279=IFCCARTESIANPOINT((0.,0.,0.));
#280=IFCDIRECTION((0.,0.,1.));
#281=IFCDIRECTION((1.,0.,0.));
#282=IFCAXIS2PLACEMENT3D(#279,#280,#281);
#283=IFCEXTRUDEDAREASOLID(#278,#282,#277,3.);
#284=IFCSHAPEREPRESENTATION(#12,'Body','SweptSolid',(#283));
#285=IFCPRODUCTDEFINITIONSHAPE($,$,(#284));
#291=IFCCARTESIANPOINT((10.,0.,3.));
#292=IFCDIRECTION((0.,0.,1.));
#293=IFCDIRECTION((0.,1.,0.));
#294=IFCAXIS2PLACEMENT3D(#291,#292,#293);
#295=IFCLOCALPLACEMENT($,#294);
#296=IFCPROPERTYSET('2PrpxTlAjVfQq7QWUaah29',$,'Pset_WallCommon',$,(#298,#299,#300));
#297=IFCRELDEFINESBYPROPERTIES('3Sb80Z0jzIpwdbW3kUOa3k',$,$,$,(#274),#296);
#298=IFCPROPERTYSINGLEVALUE('IsExternal',$,IFCBOOLEAN(.T.),$);
#299=IFCPROPERTYSINGLEVALUE('LoadBearing',$,IFCBOOLEAN(.T.),$);
#300=IFCPROPERTYSINGLEVALUE('FireRating',$,IFCLABEL('F30'),$);
#301=IFCELEMENTQUANTITY('2xqfQ3z8TMPO$2Uf1gx69F',$,'Qto_WallBaseQuantities',$,'BaseQuantities',(#303,#304,#305,#306,#307,#308,#309));
#302=IFCRELDEFINESBYPROPERTIES('3qAOVXd39PVBtezuULb0$W',$,$,$,(#274),#301);
#303=IFCQUANTITYLENGTH('Length',$,$,8.,$);
#304=IFCQUANTITYLENGTH('Height',$,$,3.,$);
#305=IFCQUANTITYLENGTH('Width',$,$,0.36499999999999999,$);
#306=IFCQUANTITYAREA('GrossSideArea',$,$,24.,$);
#307=IFCQUANTITYAREA('NetSideArea',$,$,24.,$);
#308=IFCQUANTITYVOLUME('GrossVolume',$,$,8.7599999999999998,$);
#309=IFCQUANTITYVOLUME('NetVolume',$,$,8.7599999999999998,$);
#310=IFCWALL('3P9H3VXSvPQONjW112heQO',$,'AW-Nord-OG',$,$,#331,#321,$,.SOLIDWALL.);
#311=IFCCARTESIANPOINTLIST2D(((0.,0.),(0.,0.36499999999999999),(10.,0.36499999999999999),(10.,0.),(0.,0.)));
#312=IFCINDEXEDPOLYCURVE(#311,$,.F.);
#313=IFCDIRECTION((0.,0.,1.));
#314=IFCARBITRARYCLOSEDPROFILEDEF(.AREA.,$,#312);
#315=IFCCARTESIANPOINT((0.,0.,0.));
#316=IFCDIRECTION((0.,0.,1.));
#317=IFCDIRECTION((1.,0.,0.));
#318=IFCAXIS2PLACEMENT3D(#315,#316,#317);
#319=IFCEXTRUDEDAREASOLID(#314,#318,#313,3.);
#320=IFCSHAPEREPRESENTATION(#12,'Body','SweptSolid',(#319));
#321=IFCPRODUCTDEFINITIONSHAPE($,$,(#320));
#327=IFCCARTESIANPOINT((10.,8.,3.));
#328=IFCDIRECTION((0.,0.,1.));
#329=IFCDIRECTION((-1.,0.,0.));
#330=IFCAXIS2PLACEMENT3D(#327,#328,#329);
#331=IFCLOCALPLACEMENT($,#330);
#332=IFCPROPERTYSET('2s4FE4sVvIUfRMnUUie$Q_',$,'Pset_WallCommon',$,(#334,#335,#336));
#333=IFCRELDEFINESBYPROPERTIES('3p0XJvV4DV4QMP0a7ymvPP',$,$,$,(#310),#332);
#334=IFCPROPERTYSINGLEVALUE('IsExternal',$,IFCBOOLEAN(.T.),$);
#335=IFCPROPERTYSINGLEVALUE('LoadBearing',$,IFCBOOLEAN(.T.),$);
#336=IFCPROPERTYSINGLEVALUE('FireRating',$,IFCLABEL('F30'),$);
#337=IFCELEMENTQUANTITY('2Jpnnk8oXKIwNTqN4qPvuZ',$,'Qto_WallBaseQuantities',$,'BaseQuantities',(#339,#340,#341,#342,#343,#344,#345));
#338=IFCRELDEFINESBYPROPERTIES('3Y7sM1NgvMUx37UesuZHUb',$,$,$,(#310),#337);
#339=IFCQUANTITYLENGTH('Length',$,$,10.,$);
#340=IFCQUANTITYLENGTH('Height',$,$,3.,$);
#341=IFCQUANTITYLENGTH('Width',$,$,0.36499999999999999,$);
#342=IFCQUANTITYAREA('GrossSideArea',$,$,30.,$);
#343=IFCQUANTITYAREA('NetSideArea',$,$,30.,$);
#344=IFCQUANTITYVOLUME('GrossVolume',$,$,10.949999999999999,$);
#345=IFCQUANTITYVOLUME('NetVolume',$,$,10.949999999999999,$);
#346=IFCWALL('2rfsHbJQ9IROhmOtig0aaj',$,'AW-West-OG',$,$,#367,#357,$,.SOLIDWALL.);
#347=IFCCARTESIANPOINTLIST2D(((0.,0.),(0.,0.36499999999999999),(8.,0.36499999999999999),(8.,0.),(0.,0.)));
#348=IFCINDEXEDPOLYCURVE(#347,$,.F.);
#349=IFCDIRECTION((0.,0.,1.));
#350=IFCARBITRARYCLOSEDPROFILEDEF(.AREA.,$,#348);
#351=IFCCARTESIANPOINT((0.,0.,0.));
#352=IFCDIRECTION((0.,0.,1.));
#353=IFCDIRECTION((1.,0.,0.));
#354=IFCAXIS2PLACEMENT3D(#351,#352,#353);
#355=IFCEXTRUDEDAREASOLID(#350,#354,#349,3.);
#356=IFCSHAPEREPRESENTATION(#12,'Body','SweptSolid',(#355));
#357=IFCPRODUCTDEFINITIONSHAPE($,$,(#356));
#363=IFCCARTESIANPOINT((0.,8.,3.));
#364=IFCDIRECTION((0.,0.,1.));
#365=IFCDIRECTION((0.,-1.,0.));
#366=IFCAXIS2PLACEMENT3D(#363,#364,#365);
#367=IFCLOCALPLACEMENT($,#366);
#368=IFCPROPERTYSET('2pCbDAaHrKGBNyyY4csVmi',$,'Pset_WallCommon',$,(#370,#371,#372));
#369=IFCRELDEFINESBYPROPERTIES('23xlNEcBrL_PpZD9ELZqF9',$,$,$,(#346),#368);
#370=IFCPROPERTYSINGLEVALUE('IsExternal',$,IFCBOOLEAN(.T.),$);
#371=IFCPROPERTYSINGLEVALUE('LoadBearing',$,IFCBOOLEAN(.T.),$);
#372=IFCPROPERTYSINGLEVALUE('FireRating',$,IFCLABEL('F30'),$);
#373=IFCELEMENTQUANTITY('3BDS2_jVPNmw7vAI0s7Ud5',$,'Qto_WallBaseQuantities',$,'BaseQuantities',(#375,#376,#377,#378,#379,#380,#381));
#374=IFCRELDEFINESBYPROPERTIES('2kjgGLzPTJGRz5pwU49AGc',$,$,$,(#346),#373);
#375=IFCQUANTITYLENGTH('Length',$,$,8.,$);
#376=IFCQUANTITYLENGTH('Height',$,$,3.,$);
#377=IFCQUANTITYLENGTH('Width',$,$,0.36499999999999999,$);
#378=IFCQUANTITYAREA('GrossSideArea',$,$,24.,$);
#379=IFCQUANTITYAREA('NetSideArea',$,$,24.,$);
#380=IFCQUANTITYVOLUME('GrossVolume',$,$,8.7599999999999998,$);
#381=IFCQUANTITYVOLUME('NetVolume',$,$,8.7599999999999998,$);
#382=IFCWALL('3rW$ABGWvMO9Jti$Gih3Wi',$,'IW-Quer-OG',$,$,#403,#393,$,.SOLIDWALL.);
#383=IFCCARTESIANPOINTLIST2D(((0.,0.),(0.,0.115),(9.2699999999999996,0.115),(9.2699999999999996,0.),(0.,0.)));
#384=IFCINDEXEDPOLYCURVE(#383,$,.F.);
#385=IFCDIRECTION((0.,0.,1.));
#386=IFCARBITRARYCLOSEDPROFILEDEF(.AREA.,$,#384);
#387=IFCCARTESIANPOINT((0.,0.,0.));
#388=IFCDIRECTION((0.,0.,1.));
#389=IFCDIRECTION((1.,0.,0.));
#390=IFCAXIS2PLACEMENT3D(#387,#388,#389);
#391=IFCEXTRUDEDAREASOLID(#386,#390,#385,3.);
#392=IFCSHAPEREPRESENTATION(#12,'Body','SweptSolid',(#391));
#393=IFCPRODUCTDEFINITIONSHAPE($,$,(#392));
#399=IFCCARTESIANPOINT((0.36499999999999999,4.,3.));
#400=IFCDIRECTION((0.,0.,1.));
#401=IFCDIRECTION((1.,0.,0.));
#402=IFCAXIS2PLACEMENT3D(#399,#400,#401);
#403=IFCLOCALPLACEMENT($,#402);
#404=IFCPROPERTYSET('2u1jKpB5fTVADRG9tjlB5Q',$,'Pset_WallCommon',$,(#406,#407,#408));
#405=IFCRELDEFINESBYPROPERTIES('043DC_6E9TkvanNM6RVEFJ',$,$,$,(#382),#404);
#406=IFCPROPERTYSINGLEVALUE('IsExternal',$,IFCBOOLEAN(.F.),$);
#407=IFCPROPERTYSINGLEVALUE('LoadBearing',$,IFCBOOLEAN(.F.),$);
#408=IFCPROPERTYSINGLEVALUE('FireRating',$,IFCLABEL('F30'),$);
#409=IFCELEMENTQUANTITY('1GmQhmjGfOBQJNBam1227g',$,'Qto_WallBaseQuantities',$,'BaseQuantities',(#411,#412,#413,#414,#415,#416,#417));
#410=IFCRELDEFINESBYPROPERTIES('2VoAFFVWPIlPuM0_5NeFIo',$,$,$,(#382),#409);
#411=IFCQUANTITYLENGTH('Length',$,$,9.2699999999999996,$);
#412=IFCQUANTITYLENGTH('Height',$,$,3.,$);
#413=IFCQUANTITYLENGTH('Width',$,$,0.115,$);
#414=IFCQUANTITYAREA('GrossSideArea',$,$,27.809999999999999,$);
#415=IFCQUANTITYAREA('NetSideArea',$,$,27.809999999999999,$);
#416=IFCQUANTITYVOLUME('GrossVolume',$,$,3.198,$);
#417=IFCQUANTITYVOLUME('NetVolume',$,$,3.198,$);
#418=IFCWALL('0uvLebdwXP7wO$H3Zl08Iw',$,'IW-Laengs-OG',$,$,#439,#429,$,.SOLIDWALL.);
#419=IFCCARTESIANPOINTLIST2D(((0.,0.),(0.,0.115),(3.6349999999999998,0.115),(3.6349999999999998,0.),(0.,0.)));
#420=IFCINDEXEDPOLYCURVE(#419,$,.F.);
#421=IFCDIRECTION((0.,0.,1.));
#422=IFCARBITRARYCLOSEDPROFILEDEF(.AREA.,$,#420);
#423=IFCCARTESIANPOINT((0.,0.,0.));
#424=IFCDIRECTION((0.,0.,1.));
#425=IFCDIRECTION((1.,0.,0.));
#426=IFCAXIS2PLACEMENT3D(#423,#424,#425);
#427=IFCEXTRUDEDAREASOLID(#422,#426,#421,3.);
#428=IFCSHAPEREPRESENTATION(#12,'Body','SweptSolid',(#427));
#429=IFCPRODUCTDEFINITIONSHAPE($,$,(#428));
#435=IFCCARTESIANPOINT((6.,0.36499999999999999,3.));
#436=IFCDIRECTION((0.,0.,1.));
#437=IFCDIRECTION((0.,1.,0.));
#438=IFCAXIS2PLACEMENT3D(#435,#436,#437);
#439=IFCLOCALPLACEMENT($,#438);
#440=IFCPROPERTYSET('3CE8mB18fN5QzrZCakagXx',$,'Pset_WallCommon',$,(#442,#443,#444));
#441=IFCRELDEFINESBYPROPERTIES('20N$uqtx5ON8hWKHIFyKdb',$,$,$,(#418),#440);
#442=IFCPROPERTYSINGLEVALUE('IsExternal',$,IFCBOOLEAN(.F.),$);
#443=IFCPROPERTYSINGLEVALUE('LoadBearing',$,IFCBOOLEAN(.F.),$);
#444=IFCPROPERTYSINGLEVALUE('FireRating',$,IFCLABEL('F30'),$);
#445=IFCELEMENTQUANTITY('3b14bvD35OluZqSvi8aGdz',$,'Qto_WallBaseQuantities',$,'BaseQuantities',(#447,#448,#449,#450,#451,#452,#453));
#446=IFCRELDEFINESBYPROPERTIES('0GUUYauM1QkQQG_mzAcKO5',$,$,$,(#418),#445);
#447=IFCQUANTITYLENGTH('Length',$,$,3.6349999999999998,$);
#448=IFCQUANTITYLENGTH('Height',$,$,3.,$);
#449=IFCQUANTITYLENGTH('Width',$,$,0.115,$);
#450=IFCQUANTITYAREA('GrossSideArea',$,$,10.904999999999999,$);
#451=IFCQUANTITYAREA('NetSideArea',$,$,10.904999999999999,$);
#452=IFCQUANTITYVOLUME('GrossVolume',$,$,1.254,$);
#453=IFCQUANTITYVOLUME('NetVolume',$,$,1.254,$);
#454=IFCELEMENTQUANTITY('2n9gPebwXL$RTh6LKMUxWk',$,'Qto_BuildingStoreyBaseQuantities',$,'BaseQuantities',(#456,#457,#458,#459));
#455=IFCRELDEFINESBYPROPERTIES('16Kr8vZs5G0RCImewHN3au',$,$,$,(#15),#454);
#456=IFCQUANTITYAREA('GrossFloorArea',$,$,80.,$);
#457=IFCQUANTITYAREA('NetFloorArea',$,$,65.909000000000006,$);
#458=IFCQUANTITYLENGTH('GrossPerimeter',$,$,36.,$);
#459=IFCQUANTITYLENGTH('GrossHeight',$,$,3.,$);
#460=IFCELEMENTQUANTITY('3Pq_NOyIjJn9YrtJ0E$PoH',$,'Qto_BuildingStoreyBaseQuantities',$,'BaseQuantities',(#462,#463,#464,#465));
#461=IFCRELDEFINESBYPROPERTIES('27aSIZz1fGJvFsL1e$4w5y',$,$,$,(#16),#460);
#462=IFCQUANTITYAREA('GrossFloorArea',$,$,80.,$);
#463=IFCQUANTITYAREA('NetFloorArea',$,$,65.909000000000006,$);
#464=IFCQUANTITYLENGTH('GrossPerimeter',$,$,36.,$);
#465=IFCQUANTITYLENGTH('GrossHeight',$,$,3.,$);
#466=IFCSLAB('1RLofsVi9SgeeWq2YZI3XV',$,'Bodenplatte',$,$,#483,#473,$,.BASESLAB.);
#467=IFCCARTESIANPOINTLIST2D(((0.,0.),(10.,0.),(10.,8.),(0.,8.)));
#468=IFCINDEXEDPOLYCURVE(#467,$,$);
#469=IFCDIRECTION((0.,0.,1.));
#470=IFCARBITRARYCLOSEDPROFILEDEF(.AREA.,$,#468);
#471=IFCEXTRUDEDAREASOLID(#470,$,#469,0.20000000000000001);
#472=IFCSHAPEREPRESENTATION(#12,'Body','SweptSolid',(#471));
#473=IFCPRODUCTDEFINITIONSHAPE($,$,(#472));
#479=IFCCARTESIANPOINT((0.,0.,-0.20000000000000001));
#480=IFCDIRECTION((0.,0.,1.));
#481=IFCDIRECTION((1.,0.,0.));
#482=IFCAXIS2PLACEMENT3D(#479,#480,#481);
#483=IFCLOCALPLACEMENT($,#482);
#484=IFCPROPERTYSET('3cxd2CiArPg8TXdfLvyqhQ',$,'Pset_SlabCommon',$,(#486,#487));
#485=IFCRELDEFINESBYPROPERTIES('3ROlowIqPOrgPx0VMQiwe$',$,$,$,(#466),#484);
#486=IFCPROPERTYSINGLEVALUE('IsExternal',$,IFCBOOLEAN(.T.),$);
#487=IFCPROPERTYSINGLEVALUE('LoadBearing',$,IFCBOOLEAN(.T.),$);
#488=IFCELEMENTQUANTITY('0q_I2HvxvJ_gWaZf7t6s6i',$,'Qto_SlabBaseQuantities',$,'BaseQuantities',(#490,#491,#492,#493,#494,#495,#496,#497));
#489=IFCRELDEFINESBYPROPERTIES('2Dhj8clfTKR9JsdNJmVe$j',$,$,$,(#466),#488);
#490=IFCQUANTITYLENGTH('Width',$,$,0.20000000000000001,$);
#491=IFCQUANTITYLENGTH('Length',$,$,10.,$);
#492=IFCQUANTITYLENGTH('Depth',$,$,8.,$);
#493=IFCQUANTITYLENGTH('Perimeter',$,$,36.,$);
#494=IFCQUANTITYAREA('GrossArea',$,$,80.,$);
#495=IFCQUANTITYAREA('NetArea',$,$,80.,$);
#496=IFCQUANTITYVOLUME('GrossVolume',$,$,16.,$);
#497=IFCQUANTITYVOLUME('NetVolume',$,$,16.,$);
#498=IFCSLAB('06pSYM9yLJJgMXVdZYy0sI',$,'Geschossdecke',$,$,#515,#505,$,.FLOOR.);
#499=IFCCARTESIANPOINTLIST2D(((0.,0.),(10.,0.),(10.,8.),(0.,8.)));
#500=IFCINDEXEDPOLYCURVE(#499,$,$);
#501=IFCDIRECTION((0.,0.,1.));
#502=IFCARBITRARYCLOSEDPROFILEDEF(.AREA.,$,#500);
#503=IFCEXTRUDEDAREASOLID(#502,$,#501,0.20000000000000001);
#504=IFCSHAPEREPRESENTATION(#12,'Body','SweptSolid',(#503));
#505=IFCPRODUCTDEFINITIONSHAPE($,$,(#504));
#511=IFCCARTESIANPOINT((0.,0.,2.7999999999999998));
#512=IFCDIRECTION((0.,0.,1.));
#513=IFCDIRECTION((1.,0.,0.));
#514=IFCAXIS2PLACEMENT3D(#511,#512,#513);
#515=IFCLOCALPLACEMENT($,#514);
#516=IFCPROPERTYSET('10ehlyJ9vKrPF5e3MllKRe',$,'Pset_SlabCommon',$,(#518,#519));
#517=IFCRELDEFINESBYPROPERTIES('1yd_AcUXPMhfb7IVjCa9B4',$,$,$,(#498),#516);
#518=IFCPROPERTYSINGLEVALUE('IsExternal',$,IFCBOOLEAN(.F.),$);
#519=IFCPROPERTYSINGLEVALUE('LoadBearing',$,IFCBOOLEAN(.T.),$);
#520=IFCELEMENTQUANTITY('3aEDDTsevKkfSVlZQCHcrO',$,'Qto_SlabBaseQuantities',$,'BaseQuantities',(#522,#523,#524,#525,#526,#527,#528,#529));
#521=IFCRELDEFINESBYPROPERTIES('3zEhbD2XbQdgRN1RggNc1M',$,$,$,(#498),#520);
#522=IFCQUANTITYLENGTH('Width',$,$,0.20000000000000001,$);
#523=IFCQUANTITYLENGTH('Length',$,$,10.,$);
#524=IFCQUANTITYLENGTH('Depth',$,$,8.,$);
#525=IFCQUANTITYLENGTH('Perimeter',$,$,36.,$);
#526=IFCQUANTITYAREA('GrossArea',$,$,80.,$);
#527=IFCQUANTITYAREA('NetArea',$,$,80.,$);
#528=IFCQUANTITYVOLUME('GrossVolume',$,$,16.,$);
#529=IFCQUANTITYVOLUME('NetVolume',$,$,16.,$);
#530=IFCSLAB('20Lov_duXMiOg3agGqNjwu',$,'Dachdecke',$,$,#547,#537,$,.FLOOR.);
#531=IFCCARTESIANPOINTLIST2D(((0.,0.),(10.,0.),(10.,8.),(0.,8.)));
#532=IFCINDEXEDPOLYCURVE(#531,$,$);
#533=IFCDIRECTION((0.,0.,1.));
#534=IFCARBITRARYCLOSEDPROFILEDEF(.AREA.,$,#532);
#535=IFCEXTRUDEDAREASOLID(#534,$,#533,0.20000000000000001);
#536=IFCSHAPEREPRESENTATION(#12,'Body','SweptSolid',(#535));
#537=IFCPRODUCTDEFINITIONSHAPE($,$,(#536));
#543=IFCCARTESIANPOINT((0.,0.,5.7999999999999998));
#544=IFCDIRECTION((0.,0.,1.));
#545=IFCDIRECTION((1.,0.,0.));
#546=IFCAXIS2PLACEMENT3D(#543,#544,#545);
#547=IFCLOCALPLACEMENT($,#546);
#548=IFCPROPERTYSET('0Eb0RA79jR2hSzIOpHll2b',$,'Pset_SlabCommon',$,(#550,#551));
#549=IFCRELDEFINESBYPROPERTIES('13JWWIzXzHHwk4_Oy4pEbQ',$,$,$,(#530),#548);
#550=IFCPROPERTYSINGLEVALUE('IsExternal',$,IFCBOOLEAN(.F.),$);
#551=IFCPROPERTYSINGLEVALUE('LoadBearing',$,IFCBOOLEAN(.T.),$);
#552=IFCELEMENTQUANTITY('0gqfvkLjPOpQJ_wN0FJ5uL',$,'Qto_SlabBaseQuantities',$,'BaseQuantities',(#554,#555,#556,#557,#558,#559,#560,#561));
#553=IFCRELDEFINESBYPROPERTIES('2ytpax5_5JcvEsOdjUtzQ3',$,$,$,(#530),#552);
#554=IFCQUANTITYLENGTH('Width',$,$,0.20000000000000001,$);
#555=IFCQUANTITYLENGTH('Length',$,$,10.,$);
#556=IFCQUANTITYLENGTH('Depth',$,$,8.,$);
#557=IFCQUANTITYLENGTH('Perimeter',$,$,36.,$);
#558=IFCQUANTITYAREA('GrossArea',$,$,80.,$);
#559=IFCQUANTITYAREA('NetArea',$,$,80.,$);
#560=IFCQUANTITYVOLUME('GrossVolume',$,$,16.,$);
#561=IFCQUANTITYVOLUME('NetVolume',$,$,16.,$);
#562=IFCROOF('3sVa5xIZjNfh3VZ9GdPbpd',$,'Satteldach',$,$,#567,$,$,.GABLE_ROOF.);
#563=IFCCARTESIANPOINT((0.,0.,6.));
#564=IFCDIRECTION((0.,0.,1.));
#565=IFCDIRECTION((1.,0.,0.));
#566=IFCAXIS2PLACEMENT3D(#563,#564,#565);
#567=IFCLOCALPLACEMENT($,#566);
#568=IFCSLAB('2f9IvEOQbTDeDDXgdnTe7e',$,'Dachflaeche-Sued',$,$,#586,#575,$,.ROOF.);
#569=IFCCARTESIANPOINTLIST2D(((0.,0.),(5.2635814106519279,0.),(5.2635814106519279,10.),(0.,10.)));
#570=IFCINDEXEDPOLYCURVE(#569,$,$);
#571=IFCDIRECTION((0.,0.,1.));
#572=IFCARBITRARYCLOSEDPROFILEDEF(.AREA.,$,#570);
#573=IFCEXTRUDEDAREASOLID(#572,$,#571,0.23999999999999999);
#574=IFCSHAPEREPRESENTATION(#12,'Body','SweptSolid',(#573));
#575=IFCPRODUCTDEFINITIONSHAPE($,$,(#574));
#581=IFCRELAGGREGATES('2Mjbf3Z0nU4eX7ntrT5aMJ',$,$,$,#562,(#601,#568));
#582=IFCCARTESIANPOINT((10.,0.,0.));
#583=IFCDIRECTION((0.,-0.61566147532565829,0.7880107536067219));
#584=IFCDIRECTION((0.,0.7880107536067219,0.61566147532565829));
#585=IFCAXIS2PLACEMENT3D(#582,#583,#584);
#586=IFCLOCALPLACEMENT(#567,#585);
#587=IFCPROPERTYSET('1ziCFC8YXH5AOstpFelK0J',$,'Pset_SlabCommon',$,(#589,#590));
#588=IFCRELDEFINESBYPROPERTIES('1ja$mi_nPH6RC_bm1oc28f',$,$,$,(#568),#587);
#589=IFCPROPERTYSINGLEVALUE('IsExternal',$,IFCBOOLEAN(.T.),$);
#590=IFCPROPERTYSINGLEVALUE('LoadBearing',$,IFCBOOLEAN(.T.),$);
#591=IFCELEMENTQUANTITY('2seAu8AgPU2vFwDTwe8yeR',$,'Qto_SlabBaseQuantities',$,'BaseQuantities',(#593,#594,#595,#596,#597,#598,#599,#600));
#592=IFCRELDEFINESBYPROPERTIES('2Sz$cRycfKWvoNlWCL8wA$',$,$,$,(#568),#591);
#593=IFCQUANTITYLENGTH('Width',$,$,0.23999999999999999,$);
#594=IFCQUANTITYLENGTH('Length',$,$,5.2640000000000002,$);
#595=IFCQUANTITYLENGTH('Depth',$,$,10.,$);
#596=IFCQUANTITYLENGTH('Perimeter',$,$,30.527000000000001,$);
#597=IFCQUANTITYAREA('GrossArea',$,$,52.636000000000003,$);
#598=IFCQUANTITYAREA('NetArea',$,$,52.636000000000003,$);
#599=IFCQUANTITYVOLUME('GrossVolume',$,$,12.632999999999999,$);
#600=IFCQUANTITYVOLUME('NetVolume',$,$,12.632999999999999,$);
#601=IFCSLAB('0iqrfAiArUlRHCM2N2jKo7',$,'Dachflaeche-Nord',$,$,#618,#608,$,.ROOF.);
#602=IFCCARTESIANPOINTLIST2D(((0.,0.),(5.2635814106519279,0.),(5.2635814106519279,10.),(0.,10.)));
#603=IFCINDEXEDPOLYCURVE(#602,$,$);
#604=IFCDIRECTION((0.,0.,1.));
#605=IFCARBITRARYCLOSEDPROFILEDEF(.AREA.,$,#603);
#606=IFCEXTRUDEDAREASOLID(#605,$,#604,0.23999999999999999);
#607=IFCSHAPEREPRESENTATION(#12,'Body','SweptSolid',(#606));
#608=IFCPRODUCTDEFINITIONSHAPE($,$,(#607));
#614=IFCCARTESIANPOINT((0.,8.,0.));
#615=IFCDIRECTION((0.,0.61566147532565829,0.7880107536067219));
#616=IFCDIRECTION((0.,-0.7880107536067219,0.61566147532565829));
#617=IFCAXIS2PLACEMENT3D(#614,#615,#616);
#618=IFCLOCALPLACEMENT(#567,#617);
#619=IFCPROPERTYSET('1QZjD4a3DKMho1ZCWwPDDl',$,'Pset_SlabCommon',$,(#621,#622));
#620=IFCRELDEFINESBYPROPERTIES('0zzi1XTtzUkx7YEaWGlAGB',$,$,$,(#601),#619);
#621=IFCPROPERTYSINGLEVALUE('IsExternal',$,IFCBOOLEAN(.T.),$);
#622=IFCPROPERTYSINGLEVALUE('LoadBearing',$,IFCBOOLEAN(.T.),$);
#623=IFCELEMENTQUANTITY('0SiEG45LDUqwsBJ6QJVsrc',$,'Qto_SlabBaseQuantities',$,'BaseQuantities',(#625,#626,#627,#628,#629,#630,#631,#632));
#624=IFCRELDEFINESBYPROPERTIES('0flYvHkbPLW9moV12q4lge',$,$,$,(#601),#623);
#625=IFCQUANTITYLENGTH('Width',$,$,0.23999999999999999,$);
#626=IFCQUANTITYLENGTH('Length',$,$,5.2640000000000002,$);
#627=IFCQUANTITYLENGTH('Depth',$,$,10.,$);
#628=IFCQUANTITYLENGTH('Perimeter',$,$,30.527000000000001,$);
#629=IFCQUANTITYAREA('GrossArea',$,$,52.636000000000003,$);
#630=IFCQUANTITYAREA('NetArea',$,$,52.636000000000003,$);
#631=IFCQUANTITYVOLUME('GrossVolume',$,$,12.632999999999999,$);
#632=IFCQUANTITYVOLUME('NetVolume',$,$,12.632999999999999,$);
#633=IFCPROPERTYSET('3rz$WyIoDNgvGLBQJElgcf',$,'Pset_RoofCommon',$,(#635,#636));
#634=IFCRELDEFINESBYPROPERTIES('2S0Anw101NkRxUBQgDtVGx',$,$,$,(#562),#633);
#635=IFCPROPERTYSINGLEVALUE('IsExternal',$,IFCBOOLEAN(.T.),$);
#636=IFCPROPERTYSINGLEVALUE('LoadBearing',$,IFCBOOLEAN(.T.),$);
#637=IFCELEMENTQUANTITY('1GXj_VqoPPweP40OeGKNSf',$,'Qto_RoofBaseQuantities',$,'BaseQuantities',(#639,#640,#641));
#638=IFCRELDEFINESBYPROPERTIES('0RWWI5KivGGRfBj4rV8cFn',$,$,$,(#562),#637);
#639=IFCQUANTITYAREA('GrossArea',$,$,105.27200000000001,$);
#640=IFCQUANTITYAREA('NetArea',$,$,105.27200000000001,$);
#641=IFCQUANTITYAREA('ProjectedArea',$,$,80.,$);
#642=IFCOPENINGELEMENT('1q3xV6ObXOLxc_aAAajUGq',$,'Oeffnung-Fenster-Sued-EG-1',$,$,#664,#653,$,.OPENING.);
#643=IFCCARTESIANPOINTLIST2D(((0.,0.),(0.,0.46499999999999997),(1.26,0.46499999999999997),(1.26,0.),(0.,0.)));
#644=IFCINDEXEDPOLYCURVE(#643,$,.F.);
#645=IFCDIRECTION((0.,0.,1.));
#646=IFCARBITRARYCLOSEDPROFILEDEF(.AREA.,$,#644);
#647=IFCCARTESIANPOINT((0.,-0.050000000000000003,0.));
#648=IFCDIRECTION((0.,0.,1.));
#649=IFCDIRECTION((1.,0.,0.));
#650=IFCAXIS2PLACEMENT3D(#647,#648,#649);
#651=IFCEXTRUDEDAREASOLID(#646,#650,#645,1.385);
#652=IFCSHAPEREPRESENTATION(#12,'Body','SweptSolid',(#651));
#653=IFCPRODUCTDEFINITIONSHAPE($,$,(#652));
#659=IFCRELVOIDSELEMENT('3dTYQPhLvTNh_TDLlrvoCz',$,$,$,#20,#642);
#660=IFCCARTESIANPOINT((1.5,0.,0.90000000000000002));
#661=IFCDIRECTION((0.,0.,1.));
#662=IFCDIRECTION((1.,0.,0.));
#663=IFCAXIS2PLACEMENT3D(#660,#661,#662);
#664=IFCLOCALPLACEMENT(#42,#663);
#665=IFCWINDOW('3gdg99JQnL1e8wZsQ08f$w',$,'Fenster-Sued-EG-1',$,$,#687,#676,$,1.385,1.26,$,$,$);
#666=IFCCARTESIANPOINTLIST2D(((0.,0.),(0.,0.059999999999999998),(1.26,0.059999999999999998),(1.26,0.),(0.,0.)));
#667=IFCINDEXEDPOLYCURVE(#666,$,.F.);
#668=IFCDIRECTION((0.,0.,1.));
#669=IFCARBITRARYCLOSEDPROFILEDEF(.AREA.,$,#667);
#670=IFCCARTESIANPOINT((0.,0.1525,0.));
#671=IFCDIRECTION((0.,0.,1.));
#672=IFCDIRECTION((1.,0.,0.));
#673=IFCAXIS2PLACEMENT3D(#670,#671,#672);
#674=IFCEXTRUDEDAREASOLID(#669,#673,#668,1.385);
#675=IFCSHAPEREPRESENTATION(#12,'Body','SweptSolid',(#674));
#676=IFCPRODUCTDEFINITIONSHAPE($,$,(#675));
#682=IFCRELFILLSELEMENT('3QuOG6ruLL_9GmlrdY66lI',$,$,$,#642,#665);
#683=IFCCARTESIANPOINT((0.,0.,0.));
#684=IFCDIRECTION((0.,0.,1.));
#685=IFCDIRECTION((1.,0.,0.));
#686=IFCAXIS2PLACEMENT3D(#683,#684,#685);
#687=IFCLOCALPLACEMENT(#664,#686);
#688=IFCPROPERTYSET('0Do_Y4X0TLoAMl2yYeGmK4',$,'Pset_WindowCommon',$,(#690,#691));
#689=IFCRELDEFINESBYPROPERTIES('1XKoMZqevTeeDuW0Mjzz$7',$,$,$,(#665),#688);
#690=IFCPROPERTYSINGLEVALUE('IsExternal',$,IFCBOOLEAN(.T.),$);
#691=IFCPROPERTYSINGLEVALUE('ThermalTransmittance',$,IFCTHERMALTRANSMITTANCEMEASURE(1.),$);
#692=IFCELEMENTQUANTITY('3gYT1bRPPJtAmDqUjN$9Vu',$,'Qto_WindowBaseQuantities',$,'BaseQuantities',(#694,#695,#696,#697));
#693=IFCRELDEFINESBYPROPERTIES('1MSlK9CH9KwwS0g3gWvbgf',$,$,$,(#665),#692);
#694=IFCQUANTITYLENGTH('Width',$,$,1.26,$);
#695=IFCQUANTITYLENGTH('Height',$,$,1.385,$);
#696=IFCQUANTITYLENGTH('Perimeter',$,$,5.29,$);
#697=IFCQUANTITYAREA('Area',$,$,1.7450000000000001,$);
#698=IFCELEMENTQUANTITY('10LDQTPrzSnhRTEleeg2ef',$,'Qto_OpeningElementBaseQuantities',$,'BaseQuantities',(#700,#701,#702,#703,#704));
#699=IFCRELDEFINESBYPROPERTIES('1MhdBaYjrKOfogS8wUBkQF',$,$,$,(#642),#698);
#700=IFCQUANTITYLENGTH('Width',$,$,1.26,$);
#701=IFCQUANTITYLENGTH('Height',$,$,1.385,$);
#702=IFCQUANTITYLENGTH('Depth',$,$,0.36499999999999999,$);
#703=IFCQUANTITYAREA('Area',$,$,1.7450000000000001,$);
#704=IFCQUANTITYVOLUME('Volume',$,$,0.63700000000000001,$);
#705=IFCOPENINGELEMENT('0hdYgQOyXHU9Zon1EjoULi',$,'Oeffnung-Fenster-Sued-EG-2',$,$,#727,#716,$,.OPENING.);
#706=IFCCARTESIANPOINTLIST2D(((0.,0.),(0.,0.46499999999999997),(1.26,0.46499999999999997),(1.26,0.),(0.,0.)));
#707=IFCINDEXEDPOLYCURVE(#706,$,.F.);
#708=IFCDIRECTION((0.,0.,1.));
#709=IFCARBITRARYCLOSEDPROFILEDEF(.AREA.,$,#707);
#710=IFCCARTESIANPOINT((0.,-0.050000000000000003,0.));
#711=IFCDIRECTION((0.,0.,1.));
#712=IFCDIRECTION((1.,0.,0.));
#713=IFCAXIS2PLACEMENT3D(#710,#711,#712);
#714=IFCEXTRUDEDAREASOLID(#709,#713,#708,1.385);
#715=IFCSHAPEREPRESENTATION(#12,'Body','SweptSolid',(#714));
#716=IFCPRODUCTDEFINITIONSHAPE($,$,(#715));
#722=IFCRELVOIDSELEMENT('3LovTAsL9NKPVKi_vzH4XI',$,$,$,#20,#705);
#723=IFCCARTESIANPOINT((4.5,0.,0.90000000000000002));
#724=IFCDIRECTION((0.,0.,1.));
#725=IFCDIRECTION((1.,0.,0.));
#726=IFCAXIS2PLACEMENT3D(#723,#724,#725);
#727=IFCLOCALPLACEMENT(#42,#726);
#728=IFCWINDOW('3y5_FA3YLOTwyWw$izevAy',$,'Fenster-Sued-EG-2',$,$,#750,#739,$,1.385,1.26,$,$,$);
#729=IFCCARTESIANPOINTLIST2D(((0.,0.),(0.,0.059999999999999998),(1.26,0.059999999999999998),(1.26,0.),(0.,0.)));
#730=IFCINDEXEDPOLYCURVE(#729,$,.F.);
#731=IFCDIRECTION((0.,0.,1.));
#732=IFCARBITRARYCLOSEDPROFILEDEF(.AREA.,$,#730);
#733=IFCCARTESIANPOINT((0.,0.1525,0.));
#734=IFCDIRECTION((0.,0.,1.));
#735=IFCDIRECTION((1.,0.,0.));
#736=IFCAXIS2PLACEMENT3D(#733,#734,#735);
#737=IFCEXTRUDEDAREASOLID(#732,#736,#731,1.385);
#738=IFCSHAPEREPRESENTATION(#12,'Body','SweptSolid',(#737));
#739=IFCPRODUCTDEFINITIONSHAPE($,$,(#738));
#745=IFCRELFILLSELEMENT('02qazNLa5RYP0knFLsM2_n',$,$,$,#705,#728);
#746=IFCCARTESIANPOINT((0.,0.,0.));
#747=IFCDIRECTION((0.,0.,1.));
#748=IFCDIRECTION((1.,0.,0.));
#749=IFCAXIS2PLACEMENT3D(#746,#747,#748);
#750=IFCLOCALPLACEMENT(#727,#749);
#751=IFCPROPERTYSET('1VO2RObi5OowvBPUcb$uvI',$,'Pset_WindowCommon',$,(#753,#754));
#752=IFCRELDEFINESBYPROPERTIES('0_WQvDDAHSUB$XfqHXQ7DR',$,$,$,(#728),#751);
#753=IFCPROPERTYSINGLEVALUE('IsExternal',$,IFCBOOLEAN(.T.),$);
#754=IFCPROPERTYSINGLEVALUE('ThermalTransmittance',$,IFCTHERMALTRANSMITTANCEMEASURE(1.),$);
#755=IFCELEMENTQUANTITY('0LLPhOtDDGk8uKaKCC66IJ',$,'Qto_WindowBaseQuantities',$,'BaseQuantities',(#757,#758,#759,#760));
#756=IFCRELDEFINESBYPROPERTIES('066JJW02jGZg0aykDe8VeN',$,$,$,(#728),#755);
#757=IFCQUANTITYLENGTH('Width',$,$,1.26,$);
#758=IFCQUANTITYLENGTH('Height',$,$,1.385,$);
#759=IFCQUANTITYLENGTH('Perimeter',$,$,5.29,$);
#760=IFCQUANTITYAREA('Area',$,$,1.7450000000000001,$);
#761=IFCELEMENTQUANTITY('117xE_u95JSAawP3tTmFEq',$,'Qto_OpeningElementBaseQuantities',$,'BaseQuantities',(#763,#764,#765,#766,#767));
#762=IFCRELDEFINESBYPROPERTIES('3sHbzfbFXQ7ee_Qa7mB$rb',$,$,$,(#705),#761);
#763=IFCQUANTITYLENGTH('Width',$,$,1.26,$);
#764=IFCQUANTITYLENGTH('Height',$,$,1.385,$);
#765=IFCQUANTITYLENGTH('Depth',$,$,0.36499999999999999,$);
#766=IFCQUANTITYAREA('Area',$,$,1.7450000000000001,$);
#767=IFCQUANTITYVOLUME('Volume',$,$,0.63700000000000001,$);
#768=IFCOPENINGELEMENT('2aTLVBweXVdQxRXQEl8kY3',$,'Oeffnung-Fenster-Sued-EG-3',$,$,#790,#779,$,.OPENING.);
#769=IFCCARTESIANPOINTLIST2D(((0.,0.),(0.,0.46499999999999997),(1.26,0.46499999999999997),(1.26,0.),(0.,0.)));
#770=IFCINDEXEDPOLYCURVE(#769,$,.F.);
#771=IFCDIRECTION((0.,0.,1.));
#772=IFCARBITRARYCLOSEDPROFILEDEF(.AREA.,$,#770);
#773=IFCCARTESIANPOINT((0.,-0.050000000000000003,0.));
#774=IFCDIRECTION((0.,0.,1.));
#775=IFCDIRECTION((1.,0.,0.));
#776=IFCAXIS2PLACEMENT3D(#773,#774,#775);
#777=IFCEXTRUDEDAREASOLID(#772,#776,#771,1.385);
#778=IFCSHAPEREPRESENTATION(#12,'Body','SweptSolid',(#777));
#779=IFCPRODUCTDEFINITIONSHAPE($,$,(#778));
#785=IFCRELVOIDSELEMENT('0BDOfmFxHSUulugBCTFgt4',$,$,$,#20,#768);
#786=IFCCARTESIANPOINT((7.5,0.,0.90000000000000002));
#787=IFCDIRECTION((0.,0.,1.));
#788=IFCDIRECTION((1.,0.,0.));
#789=IFCAXIS2PLACEMENT3D(#786,#787,#788);
#790=IFCLOCALPLACEMENT(#42,#789);
#791=IFCWINDOW('3cS922ybLJNhxzwyDpb_mV',$,'Fenster-Sued-EG-3',$,$,#813,#802,$,1.385,1.26,$,$,$);
#792=IFCCARTESIANPOINTLIST2D(((0.,0.),(0.,0.059999999999999998),(1.26,0.059999999999999998),(1.26,0.),(0.,0.)));
#793=IFCINDEXEDPOLYCURVE(#792,$,.F.);
#794=IFCDIRECTION((0.,0.,1.));
#795=IFCARBITRARYCLOSEDPROFILEDEF(.AREA.,$,#793);
#796=IFCCARTESIANPOINT((0.,0.1525,0.));
#797=IFCDIRECTION((0.,0.,1.));
#798=IFCDIRECTION((1.,0.,0.));
#799=IFCAXIS2PLACEMENT3D(#796,#797,#798);
#800=IFCEXTRUDEDAREASOLID(#795,#799,#794,1.385);
#801=IFCSHAPEREPRESENTATION(#12,'Body','SweptSolid',(#800));
#802=IFCPRODUCTDEFINITIONSHAPE($,$,(#801));
#808=IFCRELFILLSELEMENT('1vFAXj$k9Osh$Kc$6ETPQN',$,$,$,#768,#791);
#809=IFCCARTESIANPOINT((0.,0.,0.));
#810=IFCDIRECTION((0.,0.,1.));
#811=IFCDIRECTION((1.,0.,0.));
#812=IFCAXIS2PLACEMENT3D(#809,#810,#811);
#813=IFCLOCALPLACEMENT(#790,#812);
#814=IFCPROPERTYSET('22TrPgmKDHsPof9EGgDi90',$,'Pset_WindowCommon',$,(#816,#817));
#815=IFCRELDEFINESBYPROPERTIES('1e6rAqlgrOCRajeclgnmKm',$,$,$,(#791),#814);
#816=IFCPROPERTYSINGLEVALUE('IsExternal',$,IFCBOOLEAN(.T.),$);
#817=IFCPROPERTYSINGLEVALUE('ThermalTransmittance',$,IFCTHERMALTRANSMITTANCEMEASURE(1.),$);
#818=IFCELEMENTQUANTITY('2F88YBgGvR6wMMe4l$BpQx',$,'Qto_WindowBaseQuantities',$,'BaseQuantities',(#820,#821,#822,#823));
#819=IFCRELDEFINESBYPROPERTIES('36AOyCfVjT6Q7IAKShssJT',$,$,$,(#791),#818);
#820=IFCQUANTITYLENGTH('Width',$,$,1.26,$);
#821=IFCQUANTITYLENGTH('Height',$,$,1.385,$);
#822=IFCQUANTITYLENGTH('Perimeter',$,$,5.29,$);
#823=IFCQUANTITYAREA('Area',$,$,1.7450000000000001,$);
#824=IFCELEMENTQUANTITY('2VSCfCsF5IMuzsufWm0hvF',$,'Qto_OpeningElementBaseQuantities',$,'BaseQuantities',(#826,#827,#828,#829,#830));
#825=IFCRELDEFINESBYPROPERTIES('0ykwl6GizSRvmO1NNNUCvn',$,$,$,(#768),#824);
#826=IFCQUANTITYLENGTH('Width',$,$,1.26,$);
#827=IFCQUANTITYLENGTH('Height',$,$,1.385,$);
#828=IFCQUANTITYLENGTH('Depth',$,$,0.36499999999999999,$);
#829=IFCQUANTITYAREA('Area',$,$,1.7450000000000001,$);
#830=IFCQUANTITYVOLUME('Volume',$,$,0.63700000000000001,$);
#831=IFCOPENINGELEMENT('08S6KDmE5VjReVPEYnUUTL',$,'Oeffnung-Fenster-Sued-OG-1',$,$,#853,#842,$,.OPENING.);
#832=IFCCARTESIANPOINTLIST2D(((0.,0.),(0.,0.46499999999999997),(1.26,0.46499999999999997),(1.26,0.),(0.,0.)));
#833=IFCINDEXEDPOLYCURVE(#832,$,.F.);
#834=IFCDIRECTION((0.,0.,1.));
#835=IFCARBITRARYCLOSEDPROFILEDEF(.AREA.,$,#833);
#836=IFCCARTESIANPOINT((0.,-0.050000000000000003,0.));
#837=IFCDIRECTION((0.,0.,1.));
#838=IFCDIRECTION((1.,0.,0.));
#839=IFCAXIS2PLACEMENT3D(#836,#837,#838);
#840=IFCEXTRUDEDAREASOLID(#835,#839,#834,1.385);
#841=IFCSHAPEREPRESENTATION(#12,'Body','SweptSolid',(#840));
#842=IFCPRODUCTDEFINITIONSHAPE($,$,(#841));
#848=IFCRELVOIDSELEMENT('1idsLzWu9HW85y7vd9OA4a',$,$,$,#237,#831);
#849=IFCCARTESIANPOINT((1.5,0.,0.89999999999999991));
#850=IFCDIRECTION((0.,0.,1.));
#851=IFCDIRECTION((1.,0.,0.));
#852=IFCAXIS2PLACEMENT3D(#849,#850,#851);
#853=IFCLOCALPLACEMENT(#259,#852);
#854=IFCWINDOW('1RZF7BYaPNQ8YW9waiuVpp',$,'Fenster-Sued-OG-1',$,$,#876,#865,$,1.385,1.26,$,$,$);
#855=IFCCARTESIANPOINTLIST2D(((0.,0.),(0.,0.059999999999999998),(1.26,0.059999999999999998),(1.26,0.),(0.,0.)));
#856=IFCINDEXEDPOLYCURVE(#855,$,.F.);
#857=IFCDIRECTION((0.,0.,1.));
#858=IFCARBITRARYCLOSEDPROFILEDEF(.AREA.,$,#856);
#859=IFCCARTESIANPOINT((0.,0.1525,0.));
#860=IFCDIRECTION((0.,0.,1.));
#861=IFCDIRECTION((1.,0.,0.));
#862=IFCAXIS2PLACEMENT3D(#859,#860,#861);
#863=IFCEXTRUDEDAREASOLID(#858,#862,#857,1.385);
#864=IFCSHAPEREPRESENTATION(#12,'Body','SweptSolid',(#863));
#865=IFCPRODUCTDEFINITIONSHAPE($,$,(#864));
#871=IFCRELFILLSELEMENT('2dcB2ExdjPJxJGTLJdlr3r',$,$,$,#831,#854);
#872=IFCCARTESIANPOINT((0.,0.,0.));
#873=IFCDIRECTION((0.,0.,1.));
#874=IFCDIRECTION((1.,0.,0.));
#875=IFCAXIS2PLACEMENT3D(#872,#873,#874);
#876=IFCLOCALPLACEMENT(#853,#875);
#877=IFCPROPERTYSET('1KsdjZGu5VmfFnbBIJFb9T',$,'Pset_WindowCommon',$,(#879,#880));
#878=IFCRELDEFINESBYPROPERTIES('3bMKVCc2fOUu1LYBZ_uIec',$,$,$,(#854),#877);
#879=IFCPROPERTYSINGLEVALUE('IsExternal',$,IFCBOOLEAN(.T.),$);
#880=IFCPROPERTYSINGLEVALUE('ThermalTransmittance',$,IFCTHERMALTRANSMITTANCEMEASURE(1.),$);
#881=IFCELEMENTQUANTITY('1RQYlB1VHTvu13wgjk5B3q',$,'Qto_WindowBaseQuantities',$,'BaseQuantities',(#883,#884,#885,#886));
#882=IFCRELDEFINESBYPROPERTIES('3ib53VmT9RxfnOulbn4ZDH',$,$,$,(#854),#881);
#883=IFCQUANTITYLENGTH('Width',$,$,1.26,$);
#884=IFCQUANTITYLENGTH('Height',$,$,1.385,$);
#885=IFCQUANTITYLENGTH('Perimeter',$,$,5.29,$);
#886=IFCQUANTITYAREA('Area',$,$,1.7450000000000001,$);
#887=IFCELEMENTQUANTITY('3Qdr$09pfSAg9F8LSDEwwR',$,'Qto_OpeningElementBaseQuantities',$,'BaseQuantities',(#889,#890,#891,#892,#893));
#888=IFCRELDEFINESBYPROPERTIES('21ADaTIl5PKuwTWbw4H5IQ',$,$,$,(#831),#887);
#889=IFCQUANTITYLENGTH('Width',$,$,1.26,$);
#890=IFCQUANTITYLENGTH('Height',$,$,1.385,$);
#891=IFCQUANTITYLENGTH('Depth',$,$,0.36499999999999999,$);
#892=IFCQUANTITYAREA('Area',$,$,1.7450000000000001,$);
#893=IFCQUANTITYVOLUME('Volume',$,$,0.63700000000000001,$);
#894=IFCOPENINGELEMENT('1zzqlswhjRfersUpo2oNO3',$,'Oeffnung-Fenster-Sued-OG-2',$,$,#916,#905,$,.OPENING.);
#895=IFCCARTESIANPOINTLIST2D(((0.,0.),(0.,0.46499999999999997),(1.26,0.46499999999999997),(1.26,0.),(0.,0.)));
#896=IFCINDEXEDPOLYCURVE(#895,$,.F.);
#897=IFCDIRECTION((0.,0.,1.));
#898=IFCARBITRARYCLOSEDPROFILEDEF(.AREA.,$,#896);
#899=IFCCARTESIANPOINT((0.,-0.050000000000000003,0.));
#900=IFCDIRECTION((0.,0.,1.));
#901=IFCDIRECTION((1.,0.,0.));
#902=IFCAXIS2PLACEMENT3D(#899,#900,#901);
#903=IFCEXTRUDEDAREASOLID(#898,#902,#897,1.385);
#904=IFCSHAPEREPRESENTATION(#12,'Body','SweptSolid',(#903));
#905=IFCPRODUCTDEFINITIONSHAPE($,$,(#904));
#911=IFCRELVOIDSELEMENT('00rOdul6PT1fpsmW$KS8II',$,$,$,#237,#894);
#912=IFCCARTESIANPOINT((4.5,0.,0.89999999999999991));
#913=IFCDIRECTION((0.,0.,1.));
#914=IFCDIRECTION((1.,0.,0.));
#915=IFCAXIS2PLACEMENT3D(#912,#913,#914);
#916=IFCLOCALPLACEMENT(#259,#915);
#917=IFCWINDOW('1EQiCkCfbSNObkW3Uu89Hg',$,'Fenster-Sued-OG-2',$,$,#939,#928,$,1.385,1.26,$,$,$);
#918=IFCCARTESIANPOINTLIST2D(((0.,0.),(0.,0.059999999999999998),(1.26,0.059999999999999998),(1.26,0.),(0.,0.)));
#919=IFCINDEXEDPOLYCURVE(#918,$,.F.);
#920=IFCDIRECTION((0.,0.,1.));
#921=IFCARBITRARYCLOSEDPROFILEDEF(.AREA.,$,#919);
#922=IFCCARTESIANPOINT((0.,0.1525,0.));
#923=IFCDIRECTION((0.,0.,1.));
#924=IFCDIRECTION((1.,0.,0.));
#925=IFCAXIS2PLACEMENT3D(#922,#923,#924);
#926=IFCEXTRUDEDAREASOLID(#921,#925,#920,1.385);
#927=IFCSHAPEREPRESENTATION(#12,'Body','SweptSolid',(#926));
#928=IFCPRODUCTDEFINITIONSHAPE($,$,(#927));
#934=IFCRELFILLSELEMENT('3Y1eCFfs5NP9ESTf1ERKJZ',$,$,$,#894,#917);
#935=IFCCARTESIANPOINT((0.,0.,0.));
#936=IFCDIRECTION((0.,0.,1.));
#937=IFCDIRECTION((1.,0.,0.));
#938=IFCAXIS2PLACEMENT3D(#935,#936,#937);
#939=IFCLOCALPLACEMENT(#916,#938);
#940=IFCPROPERTYSET('22oThUCMPHWAB1Wxtg7kNT',$,'Pset_WindowCommon',$,(#942,#943));
#941=IFCRELDEFINESBYPROPERTIES('03FoVbOr5V5hd7WmfPAmhS',$,$,$,(#917),#940);
#942=IFCPROPERTYSINGLEVALUE('IsExternal',$,IFCBOOLEAN(.T.),$);
#943=IFCPROPERTYSINGLEVALUE('ThermalTransmittance',$,IFCTHERMALTRANSMITTANCEMEASURE(1.),$);
#944=IFCELEMENTQUANTITY('3r69cZFiHK78OefWBXlIF3',$,'Qto_WindowBaseQuantities',$,'BaseQuantities',(#946,#947,#948,#949));
#945=IFCRELDEFINESBYPROPERTIES('3EnRo$XPvHGuu23_amIj5o',$,$,$,(#917),#944);
#946=IFCQUANTITYLENGTH('Width',$,$,1.26,$);
#947=IFCQUANTITYLENGTH('Height',$,$,1.385,$);
#948=IFCQUANTITYLENGTH('Perimeter',$,$,5.29,$);
#949=IFCQUANTITYAREA('Area',$,$,1.7450000000000001,$);
#950=IFCELEMENTQUANTITY('0YTvsQcNPU5wD4Kcx8WdLn',$,'Qto_OpeningElementBaseQuantities',$,'BaseQuantities',(#952,#953,#954,#955,#956));
#951=IFCRELDEFINESBYPROPERTIES('1rX7ENSj9S3A5xeeFreMQE',$,$,$,(#894),#950);
#952=IFCQUANTITYLENGTH('Width',$,$,1.26,$);
#953=IFCQUANTITYLENGTH('Height',$,$,1.385,$);
#954=IFCQUANTITYLENGTH('Depth',$,$,0.36499999999999999,$);
#955=IFCQUANTITYAREA('Area',$,$,1.7450000000000001,$);
#956=IFCQUANTITYVOLUME('Volume',$,$,0.63700000000000001,$);
#957=IFCOPENINGELEMENT('0Ew2gq1nHPDBx0O_fnA6zZ',$,'Oeffnung-Fenster-Sued-OG-3',$,$,#979,#968,$,.OPENING.);
#958=IFCCARTESIANPOINTLIST2D(((0.,0.),(0.,0.46499999999999997),(1.26,0.46499999999999997),(1.26,0.),(0.,0.)));
#959=IFCINDEXEDPOLYCURVE(#958,$,.F.);
#960=IFCDIRECTION((0.,0.,1.));
#961=IFCARBITRARYCLOSEDPROFILEDEF(.AREA.,$,#959);
#962=IFCCARTESIANPOINT((0.,-0.050000000000000003,0.));
#963=IFCDIRECTION((0.,0.,1.));
#964=IFCDIRECTION((1.,0.,0.));
#965=IFCAXIS2PLACEMENT3D(#962,#963,#964);
#966=IFCEXTRUDEDAREASOLID(#961,#965,#960,1.385);
#967=IFCSHAPEREPRESENTATION(#12,'Body','SweptSolid',(#966));
#968=IFCPRODUCTDEFINITIONSHAPE($,$,(#967));
#974=IFCRELVOIDSELEMENT('3gjxlCPHfH4gaiJ4$hAyed',$,$,$,#237,#957);
#975=IFCCARTESIANPOINT((7.5,0.,0.89999999999999991));
#976=IFCDIRECTION((0.,0.,1.));
#977=IFCDIRECTION((1.,0.,0.));
#978=IFCAXIS2PLACEMENT3D(#975,#976,#977);
#979=IFCLOCALPLACEMENT(#259,#978);
#980=IFCWINDOW('3MCviyoozHKOrRRswNSO5Q',$,'Fenster-Sued-OG-3',$,$,#1002,#991,$,1.385,1.26,$,$,$);
#981=IFCCARTESIANPOINTLIST2D(((0.,0.),(0.,0.059999999999999998),(1.26,0.059999999999999998),(1.26,0.),(0.,0.)));
#982=IFCINDEXEDPOLYCURVE(#981,$,.F.);
#983=IFCDIRECTION((0.,0.,1.));
#984=IFCARBITRARYCLOSEDPROFILEDEF(.AREA.,$,#982);
#985=IFCCARTESIANPOINT((0.,0.1525,0.));
#986=IFCDIRECTION((0.,0.,1.));
#987=IFCDIRECTION((1.,0.,0.));
#988=IFCAXIS2PLACEMENT3D(#985,#986,#987);
#989=IFCEXTRUDEDAREASOLID(#984,#988,#983,1.385);
#990=IFCSHAPEREPRESENTATION(#12,'Body','SweptSolid',(#989));
#991=IFCPRODUCTDEFINITIONSHAPE($,$,(#990));
#997=IFCRELFILLSELEMENT('2xtho1rrjVSxTn0_bvS7SC',$,$,$,#957,#980);
#998=IFCCARTESIANPOINT((0.,0.,0.));
#999=IFCDIRECTION((0.,0.,1.));
#1000=IFCDIRECTION((1.,0.,0.));
#1001=IFCAXIS2PLACEMENT3D(#998,#999,#1000);
#1002=IFCLOCALPLACEMENT(#979,#1001);
#1003=IFCPROPERTYSET('1A89DKxUrL6A9JmfUdjoUn',$,'Pset_WindowCommon',$,(#1005,#1006));
#1004=IFCRELDEFINESBYPROPERTIES('2VJd_7NRPVnwRizfj4$NCW',$,$,$,(#980),#1003);
#1005=IFCPROPERTYSINGLEVALUE('IsExternal',$,IFCBOOLEAN(.T.),$);
#1006=IFCPROPERTYSINGLEVALUE('ThermalTransmittance',$,IFCTHERMALTRANSMITTANCEMEASURE(1.),$);
#1007=IFCELEMENTQUANTITY('2hLcN4VnrH9Qi7597VkZ81',$,'Qto_WindowBaseQuantities',$,'BaseQuantities',(#1009,#1010,#1011,#1012));
#1008=IFCRELDEFINESBYPROPERTIES('2V6mMsI35J7ghJx65YRjl2',$,$,$,(#980),#1007);
#1009=IFCQUANTITYLENGTH('Width',$,$,1.26,$);
#1010=IFCQUANTITYLENGTH('Height',$,$,1.385,$);
#1011=IFCQUANTITYLENGTH('Perimeter',$,$,5.29,$);
#1012=IFCQUANTITYAREA('Area',$,$,1.7450000000000001,$);
#1013=IFCELEMENTQUANTITY('04kZJEJwvOWOcQ7CmeFrh3',$,'Qto_OpeningElementBaseQuantities',$,'BaseQuantities',(#1015,#1016,#1017,#1018,#1019));
#1014=IFCRELDEFINESBYPROPERTIES('0t_$wnMKPOfA6hj5DW1oTW',$,$,$,(#957),#1013);
#1015=IFCQUANTITYLENGTH('Width',$,$,1.26,$);
#1016=IFCQUANTITYLENGTH('Height',$,$,1.385,$);
#1017=IFCQUANTITYLENGTH('Depth',$,$,0.36499999999999999,$);
#1018=IFCQUANTITYAREA('Area',$,$,1.7450000000000001,$);
#1019=IFCQUANTITYVOLUME('Volume',$,$,0.63700000000000001,$);
#1020=IFCOPENINGELEMENT('1ANTiJhITKe8j4mBIHN5Wm',$,'Oeffnung-Haustuer',$,$,#1042,#1031,$,.OPENING.);
#1021=IFCCARTESIANPOINTLIST2D(((0.,0.),(0.,0.46499999999999997),(1.135,0.46499999999999997),(1.135,0.),(0.,0.)));
#1022=IFCINDEXEDPOLYCURVE(#1021,$,.F.);
#1023=IFCDIRECTION((0.,0.,1.));
#1024=IFCARBITRARYCLOSEDPROFILEDEF(.AREA.,$,#1022);
#1025=IFCCARTESIANPOINT((0.,-0.050000000000000003,0.));
#1026=IFCDIRECTION((0.,0.,1.));
#1027=IFCDIRECTION((1.,0.,0.));
#1028=IFCAXIS2PLACEMENT3D(#1025,#1026,#1027);
#1029=IFCEXTRUDEDAREASOLID(#1024,#1028,#1023,2.1349999999999998);
#1030=IFCSHAPEREPRESENTATION(#12,'Body','SweptSolid',(#1029));
#1031=IFCPRODUCTDEFINITIONSHAPE($,$,(#1030));
#1037=IFCRELVOIDSELEMENT('1veTy_QVPJGf1na2vnwlon',$,$,$,#129,#1020);
#1038=IFCCARTESIANPOINT((4.,0.,0.));
#1039=IFCDIRECTION((0.,0.,1.));
#1040=IFCDIRECTION((1.,0.,0.));
#1041=IFCAXIS2PLACEMENT3D(#1038,#1039,#1040);
#1042=IFCLOCALPLACEMENT(#150,#1041);
#1043=IFCDOOR('2g2xPfNNbGwxm1k9ABn_nG',$,'Haustuer',$,$,#1065,#1054,$,2.1349999999999998,1.135,$,$,$);
#1044=IFCCARTESIANPOINTLIST2D(((0.,0.),(0.,0.059999999999999998),(1.135,0.059999999999999998),(1.135,0.),(0.,0.)));
#1045=IFCINDEXEDPOLYCURVE(#1044,$,.F.);
#1046=IFCDIRECTION((0.,0.,1.));
#1047=IFCARBITRARYCLOSEDPROFILEDEF(.AREA.,$,#1045);
#1048=IFCCARTESIANPOINT((0.,0.1525,0.));
#1049=IFCDIRECTION((0.,0.,1.));
#1050=IFCDIRECTION((1.,0.,0.));
#1051=IFCAXIS2PLACEMENT3D(#1048,#1049,#1050);
#1052=IFCEXTRUDEDAREASOLID(#1047,#1051,#1046,2.1349999999999998);
#1053=IFCSHAPEREPRESENTATION(#12,'Body','SweptSolid',(#1052));
#1054=IFCPRODUCTDEFINITIONSHAPE($,$,(#1053));
#1060=IFCRELFILLSELEMENT('3iNdrsAmzLpeghPDALr21K',$,$,$,#1020,#1043);
#1061=IFCCARTESIANPOINT((0.,0.,0.));
#1062=IFCDIRECTION((0.,0.,1.));
#1063=IFCDIRECTION((1.,0.,0.));
#1064=IFCAXIS2PLACEMENT3D(#1061,#1062,#1063);
#1065=IFCLOCALPLACEMENT(#1042,#1064);
#1066=IFCPROPERTYSET('3lEMQSijTJvwwJ8BtL0kQi',$,'Pset_DoorCommon',$,(#1068,#1069));
#1067=IFCRELDEFINESBYPROPERTIES('0V6D00ZfnRFBiTIkdi$79B',$,$,$,(#1043),#1066);
#1068=IFCPROPERTYSINGLEVALUE('IsExternal',$,IFCBOOLEAN(.T.),$);
#1069=IFCPROPERTYSINGLEVALUE('ThermalTransmittance',$,IFCTHERMALTRANSMITTANCEMEASURE(1.8),$);
#1070=IFCELEMENTQUANTITY('2EYx7f8DLSiugurq6NkzTD',$,'Qto_DoorBaseQuantities',$,'BaseQuantities',(#1072,#1073,#1074,#1075));
#1071=IFCRELDEFINESBYPROPERTIES('1UEdz$OUvRh890dRIVjZ_i',$,$,$,(#1043),#1070);
#1072=IFCQUANTITYLENGTH('Width',$,$,1.135,$);
#1073=IFCQUANTITYLENGTH('Height',$,$,2.1349999999999998,$);
#1074=IFCQUANTITYLENGTH('Perimeter',$,$,6.54,$);
#1075=IFCQUANTITYAREA('Area',$,$,2.423,$);
#1076=IFCELEMENTQUANTITY('2RrPOmvT1QNwLeM6gZp4vI',$,'Qto_OpeningElementBaseQuantities',$,'BaseQuantities',(#1078,#1079,#1080,#1081,#1082));
#1077=IFCRELDEFINESBYPROPERTIES('2Ed6pccSHVyuX195WIMUtT',$,$,$,(#1020),#1076);
#1078=IFCQUANTITYLENGTH('Width',$,$,1.135,$);
#1079=IFCQUANTITYLENGTH('Height',$,$,2.1349999999999998,$);
#1080=IFCQUANTITYLENGTH('Depth',$,$,0.36499999999999999,$);
#1081=IFCQUANTITYAREA('Area',$,$,2.423,$);
#1082=IFCQUANTITYVOLUME('Volume',$,$,0.88400000000000001,$);
#1083=IFCOPENINGELEMENT('3k1vfCNyzHLPBrGw4Jxx7u',$,'Oeffnung-Terrassentuer',$,$,#1105,#1094,$,.OPENING.);
#1084=IFCCARTESIANPOINTLIST2D(((0.,0.),(0.,0.46499999999999997),(1.01,0.46499999999999997),(1.01,0.),(0.,0.)));
#1085=IFCINDEXEDPOLYCURVE(#1084,$,.F.);
#1086=IFCDIRECTION((0.,0.,1.));
#1087=IFCARBITRARYCLOSEDPROFILEDEF(.AREA.,$,#1085);
#1088=IFCCARTESIANPOINT((0.,-0.050000000000000003,0.));
#1089=IFCDIRECTION((0.,0.,1.));
#1090=IFCDIRECTION((1.,0.,0.));
#1091=IFCAXIS2PLACEMENT3D(#1088,#1089,#1090);
#1092=IFCEXTRUDEDAREASOLID(#1087,#1091,#1086,2.1349999999999998);
#1093=IFCSHAPEREPRESENTATION(#12,'Body','SweptSolid',(#1092));
#1094=IFCPRODUCTDEFINITIONSHAPE($,$,(#1093));
#1100=IFCRELVOIDSELEMENT('2RMc7zOiHHyhyqvNxG0EOU',$,$,$,#93,#1083);
#1101=IFCCARTESIANPOINT((5.,0.,0.));
#1102=IFCDIRECTION((0.,0.,1.));
#1103=IFCDIRECTION((1.,0.,0.));
#1104=IFCAXIS2PLACEMENT3D(#1101,#1102,#1103);
#1105=IFCLOCALPLACEMENT(#114,#1104);
#1106=IFCDOOR('207P1fksLRXvGj5vY7Qcvt',$,'Terrassentuer',$,$,#1128,#1117,$,2.1349999999999998,1.01,$,$,$);
#1107=IFCCARTESIANPOINTLIST2D(((0.,0.),(0.,0.059999999999999998),(1.01,0.059999999999999998),(1.01,0.),(0.,0.)));
#1108=IFCINDEXEDPOLYCURVE(#1107,$,.F.);
#1109=IFCDIRECTION((0.,0.,1.));
#1110=IFCARBITRARYCLOSEDPROFILEDEF(.AREA.,$,#1108);
#1111=IFCCARTESIANPOINT((0.,0.1525,0.));
#1112=IFCDIRECTION((0.,0.,1.));
#1113=IFCDIRECTION((1.,0.,0.));
#1114=IFCAXIS2PLACEMENT3D(#1111,#1112,#1113);
#1115=IFCEXTRUDEDAREASOLID(#1110,#1114,#1109,2.1349999999999998);
#1116=IFCSHAPEREPRESENTATION(#12,'Body','SweptSolid',(#1115));
#1117=IFCPRODUCTDEFINITIONSHAPE($,$,(#1116));
#1123=IFCRELFILLSELEMENT('0ftYTQ8T9Jewd7aEsJduqi',$,$,$,#1083,#1106);
#1124=IFCCARTESIANPOINT((0.,0.,0.));
#1125=IFCDIRECTION((0.,0.,1.));
#1126=IFCDIRECTION((1.,0.,0.));
#1127=IFCAXIS2PLACEMENT3D(#1124,#1125,#1126);
#1128=IFCLOCALPLACEMENT(#1105,#1127);
#1129=IFCPROPERTYSET('175OGGk59Kcf72bd3IzZLK',$,'Pset_DoorCommon',$,(#1131,#1132));
#1130=IFCRELDEFINESBYPROPERTIES('3s$wpFbsXNQvZXZbnI3bou',$,$,$,(#1106),#1129);
#1131=IFCPROPERTYSINGLEVALUE('IsExternal',$,IFCBOOLEAN(.T.),$);
#1132=IFCPROPERTYSINGLEVALUE('ThermalTransmittance',$,IFCTHERMALTRANSMITTANCEMEASURE(1.8),$);
#1133=IFCELEMENTQUANTITY('0b$ZNM6bvTVvd6iVYG5Z7_',$,'Qto_DoorBaseQuantities',$,'BaseQuantities',(#1135,#1136,#1137,#1138));
#1134=IFCRELDEFINESBYPROPERTIES('2l6Cj_QwnSnfnULmTs2Kjy',$,$,$,(#1106),#1133);
#1135=IFCQUANTITYLENGTH('Width',$,$,1.01,$);
#1136=IFCQUANTITYLENGTH('Height',$,$,2.1349999999999998,$);
#1137=IFCQUANTITYLENGTH('Perimeter',$,$,6.29,$);
#1138=IFCQUANTITYAREA('Area',$,$,2.1560000000000001,$);
#1139=IFCELEMENTQUANTITY('0SVRrdvODKCPIRb8sMzEw4',$,'Qto_OpeningElementBaseQuantities',$,'BaseQuantities',(#1141,#1142,#1143,#1144,#1145));
#1140=IFCRELDEFINESBYPROPERTIES('32T8CJjXPMhe3$KxkpFqGD',$,$,$,(#1083),#1139);
#1141=IFCQUANTITYLENGTH('Width',$,$,1.01,$);
#1142=IFCQUANTITYLENGTH('Height',$,$,2.1349999999999998,$);
#1143=IFCQUANTITYLENGTH('Depth',$,$,0.36499999999999999,$);
#1144=IFCQUANTITYAREA('Area',$,$,2.1560000000000001,$);
#1145=IFCQUANTITYVOLUME('Volume',$,$,0.78700000000000003,$);
ENDSEC;
END-ISO-10303-21;
